<?xml version="1.0" standalone="no"?>
<!DOCTYPE svg PUBLIC "-//W3C//DTD SVG 20010904//EN"
 "http://www.w3.org/TR/2001/REC-SVG-20010904/DTD/svg10.dtd">
<svg version="1.0" xmlns="http://www.w3.org/2000/svg"
 width="96.000000pt" height="86.000000pt" viewBox="0 0 96.000000 86.000000"
 preserveAspectRatio="xMidYMid meet">

<g transform="translate(0.000000,86.000000) scale(0.100000,-0.100000)"
fill="#000000" stroke="none">
<path d="M435 823 c-11 -2 -30 -16 -42 -30 l-22 -27 -39 27 -40 26 -52 -19
c-29 -11 -72 -22 -96 -26 -53 -8 -59 -15 -34 -42 26 -28 80 -44 136 -40 58 4
68 -14 22 -38 -18 -9 -42 -26 -54 -38 -11 -12 -43 -40 -70 -63 -30 -25 -63
-66 -82 -101 -29 -54 -32 -68 -32 -147 0 -47 5 -95 11 -107 6 -11 35 -31 65
-44 74 -33 160 -33 229 0 l50 24 37 -36 c36 -34 42 -36 121 -40 140 -7 254 41
319 135 49 72 52 105 16 177 -17 34 -41 75 -54 92 -13 17 -24 34 -24 38 0 3
-16 29 -35 57 -19 28 -35 55 -35 60 0 5 -8 17 -17 28 -10 10 -31 35 -47 56
-49 63 -148 97 -231 78z m73 -90 c-10 -2 -26 -2 -35 0 -10 3 -2 5 17 5 19 0
27 -2 18 -5z m142 -128 l65 -13 -65 6 c-36 3 -137 6 -224 7 -88 0 -147 3 -130
6 55 12 288 8 354 -6z"/>
</g>
</svg>
